<?xml version="1.0" encoding="UTF-8" standalone="no"?>
<svg width="198px" height="127px" viewBox="0 0 198 127" version="1.1" xmlns="http://www.w3.org/2000/svg" xmlns:xlink="http://www.w3.org/1999/xlink">
    <defs>
        <linearGradient x1="50%" y1="0%" x2="50%" y2="100%" id="linearGradient-1">
            <stop stop-color="#F5515F" offset="0%"></stop>
            <stop stop-color="#9F031B" offset="100%"></stop>
        </linearGradient>
    </defs>
    <g id="LOGO" fill="url(#linearGradient-1)">
        <path d="M138.66265,54.3419753 C141.05265,55.4419753 155.05265,48.0819753 152.66265,42.1919753 C154.78265,40.5319753 157.09265,36.4719753 156.16265,35.9319753 C154.41265,34.9319753 141.06265,45.1419753 137.75265,49.3719753 C138.48265,50.6619753 139.58265,51.7619753 138.66265,54.3419753 L138.66265,54.3419753 Z M196.10265,54.4019753 C178.43265,49.4919753 151.99265,60.8419753 151.10265,62.1319753 C151.443735,63.5644856 151.175807,65.0742943 150.36265,66.3019753 C152.45265,65.3019753 157.57265,65.7819753 158.36265,65.5619753 C161.43265,68.8719753 170.76265,68.1419753 174.36265,62.9819753 C176.69265,63.4719753 186.36265,59.9119753 186.76265,57.0919753 C190.94265,56.8019753 201.87265,56.1219753 196.10265,54.4019753 L196.10265,54.4019753 Z M53.2926504,119.881975 C41.0026504,119.881975 30.3526504,118.001975 21.6526504,114.281975 C13.9526504,111.001975 9.71265039,107.051975 7.87265039,105.001975 C6.94927225,104.04681 6.07482072,103.045529 5.25265039,102.001975 C5.25265039,103.601975 5.96265039,106.141975 8.07265039,110.181975 C13.2126504,120.001975 39.0026504,123.001975 55.5426504,119.861975 L53.2926504,119.881975 Z M60.0026504,118.601975 C60.0339492,118.547606 60.0607067,118.490747 60.0826504,118.431975 L60.0826504,117.991975 C60.0254103,117.661924 60.0052851,117.326503 60.0226504,116.991975 C35.9626504,116.741975 17.7926504,112.241975 9.21265039,97.8419753 C2.05265039,85.9119753 1.87265039,77.5419753 1.68265039,75.1519753 C0.302650389,79.1519753 -3.56734961,91.4419753 8.68265039,104.241975 C13.1926504,109.301975 27.3426504,120.311975 60.0026504,118.601975 L60.0026504,118.601975 Z M11.8526504,99.8719753 C14.1082572,101.097205 16.5685874,101.900371 19.1126504,102.241975 C20.1922899,102.398824 21.281681,102.479024 22.3726504,102.481975 L23.3726504,102.481975 L23.3726504,102.131975 C23.4703751,101.371821 23.6898502,100.632358 24.0226504,99.9419753 C22.836984,99.7812266 21.6640905,99.5372915 20.5126504,99.2119753 C16.6039194,98.1848883 13.0582487,96.090034 10.2726504,93.1619753 C9.54529751,93.62972 9.03980629,94.3735142 8.87265039,95.2219753 C9.25265039,95.9119753 9.65265039,96.6119753 10.0826504,97.3319753 C10.6290555,98.208202 11.2198239,99.0559713 11.8526504,99.8719753 L11.8526504,99.8719753 Z M20.7526504,98.4619753 C21.9682948,98.8065772 23.2086082,99.0573144 24.4626504,99.2119753 L24.4626504,99.2119753 C24.9076806,98.4455139 25.6993794,97.9451006 26.5826504,97.8719753 C27.2823851,97.9099249 27.9029366,98.3339042 28.1926504,98.9719753 C28.4407948,99.4887473 28.7318133,99.9838132 29.0626504,100.451975 C29.5658679,101.11965 30.3295539,101.541495 31.1626504,101.611975 C31.792508,101.583885 32.3917148,101.332147 32.8526504,100.901975 C32.9447579,100.822303 32.9930984,100.703311 32.9826504,100.581975 C32.9826504,100.011975 32.1126504,98.8019753 30.9826504,98.3319753 C29.4626504,97.6619753 27.4426504,97.2319753 26.6126504,95.1819753 C26.4000988,94.6129264 26.2949861,94.0093764 26.3026504,93.4019753 C26.2745036,91.6701253 27.1446736,90.0470691 28.6026504,89.1119753 C28.3035676,88.2191201 28.1515863,87.2835907 28.1526504,86.3419753 C28.1780891,84.2039945 28.8780369,82.1286492 30.1526504,80.4119753 C31.3126504,78.8519753 32.7826504,77.8119753 34.2026504,77.7919753 C34.5478597,77.7931446 34.8888239,77.8681567 35.2026504,78.0119753 C35.5401828,78.2084409 35.771505,78.5462447 35.8326504,78.9319753 C35.958778,79.4466088 36.0589048,79.9672683 36.1326504,80.4919753 C36.4297605,82.4300897 36.8880158,84.3400445 37.5026504,86.2019753 C38.0702708,87.855122 38.7691645,89.4602366 39.5926504,91.0019753 L39.5926504,90.5919753 L39.5926504,89.8919753 C39.8053028,85.9657081 42.8167236,82.7642257 46.7226504,82.3119753 C46.5526504,81.0719753 46.4326504,79.8019753 46.3526504,78.5019753 C45.7826504,68.8619753 49.4026504,58.1719753 53.2726504,48.2519753 C49.9526504,48.8819753 46.8026504,50.1619753 45.3726504,52.6419753 C40.3726504,49.9419753 33.3726504,54.1119753 31.6226504,57.7919753 C28.1826504,56.6919753 21.1926504,59.6319753 20.6226504,63.6819753 C24.0026504,62.9419753 28.1726504,67.9819753 23.8726504,71.6819753 C19.5726504,75.3819753 15.7726504,70.3319753 16.6326504,66.5319753 C15.0326504,68.5319753 9.63265039,73.2819753 12.5226504,84.1419753 C9.34265039,85.9519753 9.63265039,89.4419753 10.0726504,91.6519753 C12.8051951,95.0142112 16.5514639,97.4029837 20.7526504,98.4619753 L20.7526504,98.4619753 Z M62.6126504,109.201975 L62.2826504,108.911975 C61.9726504,108.581975 61.4126504,108.101975 60.7626504,107.561975 C57.4992602,104.959816 54.6676589,101.858217 52.3726504,98.3719753 C49.816727,94.3033295 48.0556104,89.7868629 47.1826504,85.0619753 C45.9274159,85.4829225 44.8360722,86.2874387 44.0626504,87.3619753 C42.7429455,89.1731091 42.0416567,91.3611303 42.0626504,93.6019753 L42.0626504,93.6019753 C42.0640138,94.2726246 42.124245,94.9418598 42.2426504,95.6019753 C44.1219273,98.5215524 46.2391238,101.280932 48.5726504,103.851975 C52.0307979,107.294486 56.308495,109.799846 61.0026504,111.131975 L61.5126504,111.271975 C61.83434,110.562222 62.2017797,109.874108 62.6126504,109.211975 L62.6126504,109.201975 Z M47.0026504,84.3419753 C46.9293171,83.9286419 46.8626504,83.5119753 46.8026504,83.0919753 C43.2543297,83.5156614 40.5267931,86.4331966 40.3426504,90.0019753 L40.3426504,90.6419753 C40.3356221,91.4413338 40.4502676,92.2371082 40.6826504,93.0019753 C40.9093171,93.3886419 41.1393171,93.7753086 41.3726504,94.1619753 L41.3726504,93.6019753 L41.3726504,93.6019753 C41.3726504,89.1119753 43.7526504,85.3019753 47.0026504,84.3419753 L47.0026504,84.3419753 Z M20.3326504,104.641975 C21.4403425,104.64231 22.5465927,104.562098 23.6426504,104.401975 C23.5213191,104.006877 23.4343294,103.60204 23.3826504,103.191975 L22.3826504,103.191975 C21.2529034,103.208885 20.1233849,103.145392 19.0026504,103.001975 C16.9055329,102.704697 14.8595303,102.119164 12.9226504,101.261975 C13.8081169,102.327742 14.7671292,103.330194 15.7926504,104.261975 C16.803329,104.454876 17.8254882,104.581811 18.8526504,104.641975 C19.3726504,104.621975 19.8726504,104.631975 20.3726504,104.631975 L20.3326504,104.641975 Z M23.1626504,106.921975 C23.6132632,106.728891 24.093454,106.613916 24.5826504,106.581975 C24.3209161,106.104068 24.090433,105.609698 23.8926504,105.101975 C22.7145558,105.282194 21.5244497,105.372455 20.3326504,105.371975 L18.7826504,105.371975 C18.1159837,105.331975 17.4659837,105.265309 16.8326504,105.171975 C18.3740942,106.431685 20.0238443,107.552712 21.7626504,108.521975 C21.9666382,107.794106 22.4939388,107.200432 23.1926504,106.911975 L23.1626504,106.921975 Z M103.00265,65.7719753 C103.886206,66.1108799 104.707369,66.5941158 105.43265,67.2019753 L105.53265,67.3019753 C107.971445,65.7156855 110.085786,63.6794019 111.76265,61.3019753 C113.318798,59.1208838 114.658475,56.7931949 115.76265,54.3519753 C116.05265,53.7119753 116.28265,53.1619753 116.46265,52.7019753 C116.080186,51.3329468 115.253517,50.1298796 114.11265,49.2819753 C113.048256,52.6599829 111.422149,55.8344415 109.30265,58.6719753 C107.391232,61.1994876 105.284791,63.5734131 103.00265,65.7719753 L103.00265,65.7719753 Z M107.76265,75.4219753 C107.995242,75.9588292 108.117662,76.5369231 108.12265,77.1219753 C108.121547,77.7763721 107.963819,78.4209987 107.66265,79.0019753 C109.523306,78.1107321 111.286138,77.0282326 112.92265,75.7719753 C115.916356,73.0827922 117.664526,69.2751845 117.75265,65.2519753 C116.896495,66.9217139 115.892482,68.5114003 114.75265,70.0019753 C112.69813,72.1481887 110.331482,73.9720587 107.73265,75.4119753 L107.76265,75.4219753 Z M65.4826504,105.651975 C65.6933058,105.45771 65.9135831,105.274146 66.1426504,105.101975 C63.1426504,103.021975 59.9426504,97.2919753 59.9226504,90.1019753 C59.9338516,87.0241522 60.5065642,83.9742033 61.6126504,81.1019753 C62.4830684,78.9365957 63.5544151,76.8575134 64.8126504,74.8919753 C65.3761003,73.1502551 65.669501,71.3325195 65.6826504,69.5019753 C65.6826504,65.2019753 63.9326504,61.7119753 60.9226504,60.5019753 C60.2047207,60.1922971 59.4342504,60.02259 58.6526504,60.0019753 L58.6526504,60.0019753 C55.1426504,60.0019753 51.2226504,62.8619753 48.7826504,67.4219753 C48.006758,71.0341994 47.6975668,74.7310514 47.8626504,78.4219753 C48.9726504,97.3419753 60.1026504,104.861975 63.4926504,107.901975 C64.0885386,107.094924 64.7544524,106.342006 65.4826504,105.651975 L65.4826504,105.651975 Z M106.00265,67.8319753 C106.597978,68.5292522 107.02559,69.3536884 107.25265,70.2419753 C109.493699,68.7082018 111.492516,66.8475831 113.18265,64.7219753 C114.36467,63.1613424 115.437234,61.520754 116.39265,59.8119753 L117.10265,58.5619753 C117.299984,56.9754955 117.187917,55.3658057 116.77265,53.8219753 C115.576566,56.6173992 114.077611,59.2732655 112.30265,61.7419753 C110.600861,64.1471356 108.4641,66.2126703 106.00265,67.8319753 L106.00265,67.8319753 Z M113.76265,65.1819753 C111.975843,67.4464997 109.838949,69.4112271 107.43265,71.0019753 C107.491489,71.3925759 107.52157,71.7869694 107.52265,72.1819753 C107.51521,72.9753624 107.428106,73.7659966 107.26265,74.5419753 L107.39265,74.7319753 C109.910688,73.3256797 112.205756,71.5529839 114.20265,69.4719753 C115.226838,68.1169474 116.130294,66.6747629 116.90265,65.1619753 L117.62265,63.8019753 C117.488633,62.7462199 117.148889,61.7269902 116.62265,60.8019753 C115.778864,62.327136 114.833395,63.793783 113.79265,65.1919753 L113.76265,65.1819753 Z M62.4826504,58.1819753 C61.4355805,57.6999696 60.2953098,57.4541628 59.1426504,57.4619753 L59.1426504,57.4619753 C55.9426504,57.4619753 52.5226504,59.3019753 49.9626504,62.4619753 C49.6959837,63.4153086 49.4493171,64.3686419 49.2226504,65.3219753 C51.7526504,61.6519753 55.2226504,59.3219753 58.6326504,59.3219753 C59.4980161,59.3183698 60.3563159,59.4778168 61.1626504,59.7919753 C64.5626504,61.1319753 66.3926504,64.9619753 66.3926504,69.4319753 C66.3880402,70.5905991 66.2708224,71.7460317 66.0426504,72.8819753 C66.4226504,72.3219753 66.8059837,71.7719753 67.1926504,71.2319753 C67.4744703,70.0458159 67.6187541,68.8311477 67.6226504,67.6119753 C67.6426504,63.3319753 65.7926504,59.6819753 62.5126504,58.1619753 L62.4826504,58.1819753 Z M63.1526504,24.5319753 C61.2626504,34.6019753 54.3126504,47.7919753 50.4426504,60.8019753 C52.6947929,58.3273644 55.8399929,56.8519273 59.1826504,56.7019753 C60.4391258,56.6962387 61.6815966,56.9658958 62.8226504,57.4919753 C66.4326504,59.1619753 68.3826504,63.1319753 68.3826504,67.6019753 C68.3783154,68.3550136 68.3215112,69.1068345 68.2126504,69.8519753 C70.1821546,67.193233 72.3057959,64.6522093 74.5726504,62.2419753 C75.3694297,61.1842656 76.0062493,60.0150783 76.4626504,58.7719753 C77.1926504,57.0719753 77.9826504,54.9719753 78.7426504,52.8719753 C80.2726504,48.6519753 81.6726504,44.4619753 82.3926504,43.2119753 C82.4748287,43.0465061 82.5947128,42.9026451 82.7426504,42.7919753 L82.8526504,42.7219753 L83.0026504,42.7219753 C85.9076891,42.907151 88.5579754,44.4432806 90.1626504,46.8719753 C91.58967,49.2189735 92.4681922,51.8579585 92.7326504,54.5919753 L93.5326504,54.5919753 C95.0189369,54.4983628 96.46764,55.0829917 97.4726504,56.1819753 C99.0333699,58.2724131 98.9757059,61.1556129 97.3326504,63.1819753 C95.9126504,64.4919753 93.7626504,65.3819753 92.4826504,67.5219753 C91.8790543,68.451445 91.5338921,69.5248997 91.4826504,70.6319753 C91.4279655,71.3264066 91.7245247,72.0021109 92.2726504,72.4319753 C92.4044501,72.5131723 92.5581462,72.5515963 92.7126504,72.5419753 C93.6232571,72.4253913 94.4898754,72.0814952 95.2326504,71.5419753 C95.9902444,71.0514291 96.665288,70.4438899 97.2326504,69.7419753 C97.7926504,68.9719753 98.3326504,66.8919753 99.2326504,65.7919753 C99.5248179,65.4008404 99.9751992,65.1591723 100.46265,65.1319753 C100.568961,65.1196562 100.676339,65.1196562 100.78265,65.1319753 C101.22265,65.2419753 101.66265,65.3619753 102.10265,65.5019753 L102.50265,65.1419753 C102.80265,64.8619753 103.24265,64.4419753 103.81265,63.8519753 C105.517782,62.0660343 107.129912,60.19356 108.64265,58.2419753 C110.451681,55.8430037 111.88478,53.1824972 112.89265,50.3519753 C113.06265,49.8819753 113.21265,49.4519753 113.34265,49.0419753 L113.34265,49.0419753 C113.28265,43.6119753 110.18265,39.8319753 106.47265,38.9819753 C107.05265,35.7919753 103.37265,29.7119753 100.21265,29.2819753 C101.07265,34.7719753 96.5626504,36.5219753 93.4626504,34.9319753 C90.3626504,33.3419753 90.7626504,25.5719753 96.7426504,26.2219753 C96.7426504,24.4719753 92.6926504,19.0419753 89.7426504,18.4919753 C89.8026504,13.6119753 82.9926504,8.49197528 77.9326504,10.2019753 C76.7126504,2.24197528 62.5326504,-2.36802472 60.4826504,1.25197528 C61.8026504,3.80197528 65.6626504,11.4419753 63.1826504,24.5119753 L63.1526504,24.5319753 Z M106.79265,72.2019753 C106.882258,70.5107883 106.193393,68.8715096 104.92265,67.7519753 C103.674201,66.7723807 102.210544,66.1039662 100.65265,65.8019753 L100.50265,65.8019753 C100.231475,65.8306353 99.9865414,65.9768645 99.8326504,66.2019753 C99.550822,66.5608341 99.3156144,66.9539668 99.1326504,67.3719753 C98.7633413,68.3013028 98.3358272,69.2064303 97.8526504,70.0819753 C97.2217576,70.8679613 96.4648096,71.5438077 95.6126504,72.0819753 C94.7578435,72.726369 93.7462018,73.1303351 92.6826504,73.2519753 C92.3781124,73.2624155 92.0777748,73.1786003 91.8226504,73.0119753 C91.077264,72.4457772 90.6614023,71.5466168 90.7126504,70.6119753 C90.7723751,69.3688747 91.1624363,68.1641724 91.8426504,67.1219753 C93.2726504,64.7519753 95.5726504,63.8019753 96.8426504,62.6219753 C97.545783,61.7545073 97.9021047,60.6570364 97.8426504,59.5419753 C97.8746716,58.5001064 97.5382814,57.4803131 96.8926504,56.6619753 C96.0283958,55.7254655 94.7833546,55.2355528 93.5126504,55.3319753 C93.1548196,55.3313524 92.7973502,55.3547382 92.4426504,55.4019753 L92.0726504,55.4019753 L92.0726504,55.0319753 C91.8458997,52.2877251 90.9904798,49.6325016 89.5726504,47.2719753 C88.1283359,45.0784021 85.7511058,43.6756887 83.1326504,43.4719753 L83.1326504,43.4719753 C83.0629468,43.5816294 82.9995118,43.6951446 82.9426504,43.8119753 C82.7926504,44.1019753 82.6126504,44.5219753 82.4126504,45.0419753 C82.0026504,46.0419753 81.5026504,47.4519753 80.9526504,49.0419753 C79.8426504,52.1419753 78.5326504,55.9019753 77.3326504,58.7319753 C76.8119327,60.169652 76.073307,61.5187401 75.1426504,62.7319753 C73.6826504,64.1819753 65.2026504,73.7319753 62.3426504,81.2619753 C61.5457276,83.3405532 61.0311418,85.5166122 60.8126504,87.7319753 C61.9412362,86.669328 63.4545196,86.1131332 65.0026504,86.1919753 C66.5379438,86.2110207 68.0451999,86.60586 69.3926504,87.3419753 C69.8737301,87.5536933 70.3977701,87.649596 70.9226504,87.6219753 C76.5626504,87.6219753 91.1026504,80.6219753 93.0626504,79.1519753 L93.5026504,79.7419753 C88.5245816,82.6380043 83.2681953,85.0266617 77.8126504,86.8719753 C78.0559084,87.005543 78.3062814,87.1257221 78.5626504,87.2319753 C80.5983735,87.9586263 82.7521279,88.2978002 84.9126504,88.2319753 C85.9447931,88.2348516 86.9763247,88.181439 88.0026504,88.0719753 C92.6526504,84.6519753 100.00265,82.5319753 106.32265,79.6219753 C106.957943,78.9396774 107.314703,78.0442116 107.32265,77.1119753 C107.327286,76.3630723 107.111683,75.6293263 106.70265,75.0019753 L106.59265,74.8519753 L106.48265,74.7119753 L106.48265,74.5419753 C106.667318,73.7749229 106.771217,72.9906528 106.79265,72.2019753 L106.79265,72.2019753 Z M68.7926504,103.581975 C70.8989819,102.715163 73.1549341,102.270089 75.4326504,102.271975 L75.4326504,102.271975 C77.2326504,102.271975 80.4826504,102.571975 82.1026504,104.601975 C82.2126504,104.741975 82.2326504,104.701975 82.2226504,104.671975 L82.2226504,104.771975 C82.3685619,104.821504 82.5267388,104.821504 82.6726504,104.771975 C84.5826504,104.041975 77.9426504,96.5619753 86.9026504,88.8919753 C86.2026504,88.9419753 85.5126504,88.9719753 84.8526504,88.9719753 C82.5944603,89.0311909 80.3453025,88.6648122 78.2226504,87.8919753 C77.7285184,87.6943119 77.2560314,87.44634 76.8126504,87.1519753 C74.8959985,87.8169912 72.8975626,88.2173512 70.8726504,88.3419753 C70.2310534,88.3805319 69.5896132,88.2639064 69.0026504,88.0019753 C68.4053052,87.6839581 67.7748652,87.4324528 67.1226504,87.2519753 C66.2055409,89.3834727 65.7391082,91.6815901 65.7526504,94.0019753 C65.6930363,97.225907 66.621248,100.390899 68.4126504,103.071975 C68.5326504,103.281975 68.6526504,103.441975 68.7826504,103.591975 L68.7926504,103.581975 Z M68.1026504,103.891975 C66.0227981,101.019393 64.9346351,97.5478022 65.0026504,94.0019753 C64.9870926,91.5975866 65.4635245,89.2154272 66.4026504,87.0019753 C65.9390202,86.9367792 65.4704716,86.9133518 65.0026504,86.9319753 C62.9026504,86.9319753 61.2926504,87.8419753 60.8426504,89.0219753 L60.8426504,89.0219753 L60.6826504,89.0019753 L60.6826504,90.0819753 C60.6826504,97.2919753 64.0326504,102.991975 66.8026504,104.671975 C67.216146,104.388617 67.6469901,104.131447 68.0926504,103.901975 L68.1026504,103.891975 Z M181.13265,92.0019753 C175.22265,90.0919753 158.48265,90.6419753 148.77265,93.7419753 C148.77265,93.7419753 153.22265,95.2219753 156.13265,96.3619753 L168.49265,96.3619753 L168.49265,97.1019753 L157.88265,97.1019753 C158.31265,97.3119753 158.58265,97.4719753 158.59265,97.5619753 C158.017181,98.1893682 157.341274,98.7165756 156.59265,99.1219753 L163.23265,100.981975 L163.03265,101.691975 L155.78265,99.6919753 C155.04265,100.181975 154.21265,100.691975 153.36265,101.251975 L174.14265,109.871975 L173.86265,110.551975 L152.60265,101.741975 L150.23265,103.211975 L165.91265,113.211975 L165.51265,113.831975 L149.51265,103.631975 C147.74265,104.721975 146.41265,105.511975 146.41265,105.511975 L146.35265,105.641975 L157.23265,112.841975 L156.82265,113.451975 L146.04265,106.321975 L144.84265,109.031975 C151.25265,117.171975 165.28265,122.831975 174.46265,116.831975 C177.65265,116.581975 194.11265,115.991975 194.59265,112.171975 C192.38265,109.961975 180.59265,107.751975 169.31265,102.721975 C173.27265,102.001975 181.13265,92.0019753 181.13265,92.0019753 L181.13265,92.0019753 Z M127.47265,79.4819753 C126.255193,79.051282 124.97403,78.8281772 123.68265,78.8219753 C123.098393,78.7827729 122.511579,78.8333603 121.94265,78.9719753 L121.10265,79.1719753 L121.36265,78.3419753 C121.610938,77.4462637 121.73873,76.521454 121.74265,75.5919753 C121.789338,72.9746608 120.694164,70.4667128 118.74265,68.7219753 C118.74265,68.9019753 118.65265,69.0819753 118.60265,69.2519753 C117.800975,72.2262558 116.129605,74.8934832 113.80265,76.9119753 C110.10265,79.8519753 105.06265,81.8419753 100.18265,83.7719753 C96.7260485,85.0177396 93.3808282,86.5531957 90.1826504,88.3619753 C90.1826504,88.3619753 116.39265,85.0019753 132.47265,83.0019753 C131.180671,81.3706344 129.444133,80.1481115 127.47265,79.4819753 L127.47265,79.4819753 Z M118.93265,67.9119753 C121.225337,69.7965878 122.532527,72.6245372 122.48265,75.5919753 C122.478796,76.4682228 122.371384,77.3409437 122.16265,78.1919753 C122.66604,78.1190581 123.174007,78.0822973 123.68265,78.0819753 C125.045608,78.0915226 126.397451,78.328095 127.68265,78.7819753 C129.930454,79.5274013 131.890922,80.9531957 133.29265,82.8619753 C139.91265,82.0519753 144.62265,81.5019753 144.71265,81.5819753 C145.03265,81.9219753 143.96265,87.6519753 143.96265,87.6519753 C152.67265,85.5419753 162.25265,81.5819753 164.41265,77.3419753 C161.46265,77.7119753 155.94265,78.0819753 152.41265,75.8719753 C152.96265,75.3219753 151.86265,69.6119753 148.17265,68.3219753 C150.17265,60.9619753 146.51265,53.5919753 136.94265,55.8019753 C137.31265,46.0419753 122.76265,46.2319753 122.76265,54.8819753 C121.30265,55.2819753 119.54265,54.6219753 118.61265,56.4519753 C118.715801,57.8100652 118.524791,59.1744261 118.05265,60.4519753 C119.180056,62.7680837 119.486831,65.3985907 118.92265,67.9119753 L118.93265,67.9119753 Z M140.00265,69.6819753 C141.770635,69.6779946 143.365997,70.7420819 144.041589,72.3758991 C144.717182,74.0097164 144.339242,75.8897754 143.084766,77.135599 C141.830291,78.3814227 139.947662,78.7463435 138.318559,78.0594604 C136.689456,77.3725772 135.636435,75.7698897 135.65265,74.0019753 C135.674557,71.6135418 137.614123,69.6873531 140.00265,69.6819753 L140.00265,69.6819753 Z M128.84265,58.4519753 C130.283445,58.451981 131.582178,59.3204331 132.132607,60.651942 C132.683037,61.983451 132.376621,63.5154519 131.356393,64.5328134 C130.336166,65.550175 128.803309,65.8522802 127.473354,65.2981076 C126.143399,64.7439351 125.278603,63.442764 125.28265,62.0019753 C125.288162,60.0397479 126.880415,58.4519675 128.84265,58.4519753 L128.84265,58.4519753 Z M38.8326504,112.001975 C39.1432272,111.662185 39.3451983,111.237349 39.4126504,110.781975 L39.0526504,110.781975 C36.1151738,110.687927 33.218771,110.064607 30.5026504,108.941975 L30.7926504,108.261975 C31.628056,108.607895 32.4828252,108.905061 33.3526504,109.151975 C35.2031927,109.707106 37.1209617,110.006547 39.0526504,110.041975 L39.8926504,110.041975 C41.5226087,109.913497 43.0521683,109.203725 44.2026504,108.041975 C45.2826504,107.041975 46.0226504,106.041975 46.9626504,105.621975 C47.5826901,105.382082 48.2382888,105.246907 48.9026504,105.221975 C48.6159837,104.948642 48.3359837,104.665309 48.0626504,104.371975 C45.0126504,101.111975 39.0626504,93.2819753 36.8126504,86.4419753 C36.088444,84.047287 35.5337392,81.6045808 35.1526504,79.1319753 C35.0626504,78.7919753 34.9626504,78.6919753 34.9226504,78.6819753 C34.6997375,78.5808482 34.4574186,78.529654 34.2126504,78.5319753 C32.7767373,78.7651524 31.5135722,79.6121301 30.7526504,80.8519753 C29.5745956,82.442207 28.9273082,84.3630761 28.9026504,86.3419753 C28.9007301,87.2976819 29.0700727,88.2460004 29.4026504,89.1419753 L29.5126504,89.4319753 L29.2426504,89.5919753 C27.8504879,90.3467071 26.9888276,91.8084522 27.0026504,93.3919753 C26.9969946,93.903657 27.0851154,94.4120467 27.2626504,94.8919753 C27.9026504,96.5319753 29.5926504,96.8919753 31.2626504,97.6419753 C32.5329046,98.1210977 33.4614759,99.2278031 33.7126504,100.561975 C33.7223457,100.904184 33.5749977,101.232033 33.3126504,101.451975 C32.7224658,101.990119 31.9607797,102.301879 31.1626504,102.331975 C30.1183463,102.262491 29.153751,101.749253 28.5126504,100.921975 C28.1305075,100.424288 27.7957182,99.8919734 27.5126504,99.3319753 C27.2126504,98.8419753 26.9726504,98.5919753 26.5126504,98.5919753 C25.878582,98.665257 25.3175743,99.0367853 25.0026504,99.5919753 C24.4905598,100.366853 24.1653563,101.250037 24.0526504,102.171975 C24.0432468,102.311817 24.0432468,102.452133 24.0526504,102.591975 C24.104843,103.550995 24.3497148,104.489671 24.7726504,105.351975 C24.9845607,105.821487 25.228468,106.275889 25.5026504,106.711975 L25.9126504,107.341975 L25.1626504,107.271975 L25.0026504,107.271975 C24.4849867,107.266672 23.9715207,107.365285 23.4926504,107.561975 C22.9706061,107.784341 22.5949979,108.253852 22.4926504,108.811975 C26.5065496,110.884966 30.7768737,112.418248 35.1926504,113.371975 L35.1926504,113.371975 C37.2526504,113.201975 38.3026504,112.571975 38.8326504,112.001975 L38.8326504,112.001975 Z M60.1926504,115.911975 C60.393427,114.572002 60.7491432,113.259879 61.2526504,112.001975 C57.0260405,110.845506 53.0950753,108.799904 49.7226504,106.001975 L49.2026504,106.001975 C48.5191474,105.99359 47.8403285,106.115778 47.2026504,106.361975 C46.2686474,107.018665 45.416001,107.784033 44.6626504,108.641975 C43.4339523,109.846882 41.8340126,110.601038 40.1226504,110.781975 C40.0609206,111.434885 39.7869424,112.049579 39.3426504,112.531975 C38.6989985,113.168823 37.8873793,113.609317 37.0026504,113.801975 C44.5866216,115.219741 52.287346,115.919503 60.0026504,115.891975 L60.1926504,115.911975 Z M156.33265,97.6419753 L141.61265,93.0019753 L143.27265,83.0619753 L110.79265,87.2119753 C110.922183,88.1365339 110.992327,89.0684439 111.00265,90.0019753 C110.99993,91.6456281 110.825653,93.2845079 110.48265,94.8919753 L110.48265,94.8919753 C109.788984,98.2703723 108.324235,101.442854 106.20265,104.161975 L142.10265,111.631975 L145.32265,104.381975 L156.33265,97.6419753 Z M84.1626504,101.951975 L84.1626504,101.951975 L140.16265,116.021975 L141.48265,113.021975 L83.9826504,101.021975 C84.0026504,101.371975 84.1026504,101.651975 84.1726504,101.921975 L84.1626504,101.951975 Z M109.86265,90.0019753 C109.864163,89.1059006 109.807376,88.2106767 109.69265,87.3219753 L87.6926504,90.1319753 C87.2592696,90.5107263 86.8454033,90.9112421 86.4526504,91.3319753 L109.80265,90.8519753 C109.85265,90.5919753 109.86265,90.3119753 109.86265,90.0019753 L109.86265,90.0019753 Z M107.08265,100.821975 L83.6026504,97.3019753 C83.540907,98.0385953 83.5610299,98.7797905 83.6626504,99.5119753 L104.95265,103.941975 C105.761145,102.983463 106.474503,101.948592 107.08265,100.851975 L107.08265,100.821975 Z M109.37265,94.6719753 C109.559872,93.7774207 109.693443,92.8724729 109.77265,91.9619753 L85.5426504,92.4619753 C85.2286257,92.8814373 84.9445871,93.3225324 84.6926504,93.7819753 L109.28265,95.0819753 C109.30265,95.0019753 109.34265,94.8319753 109.37265,94.7019753 L109.37265,94.6719753 Z M109.00265,96.1919753 L84.1726504,94.8819753 C84.0002349,95.3134892 83.8631183,95.758282 83.7626504,96.2119753 L107.61265,99.8219753 C108.182759,98.6556091 108.647927,97.4408167 109.00265,96.1919753 L109.00265,96.1919753 Z M80.9526504,105.531975 C78.7426504,102.771975 70.1426504,103.271975 66.5026504,106.731975 C62.3426504,110.681975 61.1326504,116.301975 61.6426504,119.281975 C61.4032794,119.881317 60.8760401,120.318173 60.2426504,120.441975 C56.4326504,121.181975 55.3326504,122.531975 53.0026504,122.771975 C47.2226504,123.381975 44.0026504,124.001975 44.1626504,124.861975 C44.3226504,125.721975 49.5626504,124.001975 52.2626504,125.351975 C56.8426504,128.351975 62.3926504,123.991975 64.6326504,121.931975 C67.1126504,122.481975 70.7826504,122.551975 72.5826504,121.931975 C75.3921887,121.038597 77.3732227,118.522684 77.5826504,115.581975 C79.4726504,112.341975 82.3526504,107.281975 80.9426504,105.521975 L80.9526504,105.531975 Z M73.3626504,116.001975 C71.5298093,116.92874 69.3654914,116.92874 67.5326504,116.001975 C66.9473841,115.708937 66.4990949,115.199681 66.2826504,114.581975 L67.0726504,114.581975 C67.2705121,114.914814 67.5581756,115.185148 67.9026504,115.361975 C69.5093092,116.158669 71.3959916,116.158669 73.0026504,115.361975 C73.3471252,115.185148 73.6347887,114.914814 73.8326504,114.581975 L74.6126504,114.581975 C74.3962059,115.199681 73.9479166,115.708937 73.3626504,116.001975 L73.3626504,116.001975 Z M106.36265,115.831975 C108.593626,114.60029 110.318266,112.620672 111.23265,110.241975 C109.566047,109.57539 107.832823,109.089282 106.06265,108.791975 L105.82265,108.931975 C103.92319,110.106308 102.2136,111.563 100.75265,113.251975 C99.474913,114.766003 98.3369311,116.392648 97.3526504,118.111975 L97.3526504,118.171975 L97.3526504,118.171975 C97.1626504,118.501975 96.9726504,118.831975 96.7926504,119.171975 L96.6826504,119.381975 L97.7426504,119.381975 C98.3026504,119.201975 99.4226504,118.841975 100.74265,118.381975 C102.681594,117.676571 104.558136,116.810217 106.35265,115.791975 L106.36265,115.831975 Z M97.1326504,110.831975 C93.7226504,114.241975 89.5826504,116.331975 86.3526504,119.071975 C84.6741494,120.396804 83.4934306,122.250709 83.0026504,124.331975 C87.5466737,123.952604 91.9004037,122.337678 95.5926504,119.661975 L96.0026504,119.001975 C96.1826504,118.661975 96.3826504,118.311975 96.5926504,117.951975 L96.5926504,117.201975 C96.4581483,115.060851 96.6366947,112.911557 97.1226504,110.821975 L97.1326504,110.831975 Z M85.8626504,118.501975 L86.4426504,118.031975 C86.3948895,117.700803 86.3714933,117.366572 86.3726504,117.031975 C86.4719767,114.395368 87.337225,111.844797 88.8626504,109.691975 C89.8663636,108.253678 91.0048419,106.914292 92.2626504,105.691975 C90.6343515,105.428861 88.9911,105.268544 87.3426504,105.211975 C82.7999598,108.166367 80.0430213,113.203226 80.0026504,118.621975 C79.9956461,120.530411 80.3344505,122.424328 81.0026504,124.211975 C81.4145765,124.2927 81.8329287,124.336208 82.2526504,124.341975 C82.7418641,122.035387 84.0181097,119.970768 85.8626504,118.501975 L85.8626504,118.501975 Z M79.7326504,114.731975 C79.4926504,115.151975 79.2426504,115.581975 78.9826504,116.021975 C78.7706178,118.064272 77.8213592,119.959233 76.3126504,121.351975 C77.4746037,122.360049 78.7619252,123.213782 80.1426504,123.891975 C79.568703,122.194131 79.2748632,120.414204 79.2726504,118.621975 C79.2727624,117.311748 79.4271588,116.006091 79.7326504,114.731975 L79.7326504,114.731975 Z M111.73265,118.321975 C112.73265,118.661975 114.02265,118.881975 115.62265,119.431975 C117.56265,120.181975 118.79265,122.161975 119.95265,120.431975 C120.67265,119.371975 120.32265,117.701975 119.06265,115.931975 C116.768762,117.1107 114.300807,117.91422 111.75265,118.311975 L111.73265,118.321975 Z M97.7326504,111.231975 C97.3326734,113.046642 97.1679864,114.905252 97.2426504,116.761975 C98.105644,115.353986 99.0786799,114.016479 100.15265,112.761975 C101.538688,111.158386 103.140647,109.754989 104.91265,108.591975 C103.52265,108.351975 101.86265,107.911975 100.06265,107.431975 C99.5526504,108.071975 98.9626504,108.781975 98.2626504,109.581975 L98.1726504,109.801975 C98.0103584,110.270063 97.8767769,110.747617 97.7726504,111.231975 L97.7326504,111.231975 Z M86.0226504,105.121975 C84.8569242,105.115229 83.695885,105.270035 82.5726504,105.581975 C82.836232,106.621685 82.7945692,107.715332 82.4526504,108.731975 C83.46245,107.34666 84.6801342,106.125603 86.0626504,105.111975 L86.0226504,105.121975 Z M118.59265,115.351975 C116.752576,113.238795 114.449422,111.579018 111.86265,110.501975 C110.883842,113.024344 109.050581,115.123038 106.68265,116.431975 C104.678634,117.523574 102.584207,118.440304 100.42265,119.171975 C103.818913,118.845966 107.196547,118.348667 110.54265,117.681975 L110.63265,117.761975 C111.39265,117.641975 112.52265,117.441975 113.77265,117.131975 C115.463882,116.754959 117.097982,116.156461 118.63265,115.351975 L118.59265,115.351975 Z M92.2926504,106.581975 C91.2571356,107.637035 90.3168164,108.78148 89.4826504,110.001975 C88.0201551,112.051491 87.1925034,114.485761 87.1026504,117.001975 L87.1026504,117.511975 C90.5026504,114.921975 94.4426504,112.801975 97.4926504,109.351975 L97.6426504,109.171975 L97.7126504,109.031975 L97.7126504,109.031975 C98.2926504,108.361975 98.8026504,107.751975 99.2426504,107.211975 C97.2426504,106.691975 95.1726504,106.141975 93.0826504,105.761975 L92.2926504,106.581975 Z" id="Shape"></path>
    </g>
</svg>